<svg xmlns="http://www.w3.org/2000/svg" xmlns:xlink="http://www.w3.org/1999/xlink" width="268.195" height="45.711" viewBox="0 0 268.195 45.711">
  <defs>
    <clipPath id="clip-path">
      <rect id="Rectángulo_466" data-name="Rectángulo 466" width="268.195" height="45.711" fill="#fff"/>
    </clipPath>
  </defs>
  <g id="Grupo_1551" data-name="Grupo 1551" clip-path="url(#clip-path)">
    <path id="Trazado_3404" data-name="Trazado 3404" d="M59.789,32.058c-.1.676-.439,2.244-.591,2.752H50.754v-.54c1.47-.119,1.621-.236,1.621-1.654v-6.57c0-1.487-.152-1.554-1.385-1.654v-.557h7.786c.016.334.1,1.518.168,2.5l-.573.087a3.555,3.555,0,0,0-.625-1.455c-.27-.32-.726-.437-1.773-.437h-.981c-.59,0-.64.033-.64.574v3.664h1.3c1.453,0,1.621-.1,1.842-1.267h.573v3.345h-.573c-.221-1.217-.389-1.285-1.842-1.285h-1.3v3.008c0,.81.085,1.2.4,1.382a3.914,3.914,0,0,0,1.587.187c1.029,0,1.587-.118,1.975-.558a5.626,5.626,0,0,0,.914-1.62Z" transform="translate(4.996 2.346)" fill="#fff"/>
    <path id="Trazado_3405" data-name="Trazado 3405" d="M64.262,29.193c-.406-1.033-.963-1.706-1.774-1.706a.959.959,0,0,0-.945,1.013c0,.589.489,1,1.316,1.35,1.335.573,2.23,1.167,2.23,2.431,0,1.622-1.537,2.434-2.938,2.434a3.844,3.844,0,0,1-2.061-.576,8.884,8.884,0,0,1-.27-2.179l.472-.048c.355,1.081,1.132,2.178,2.146,2.178a1,1,0,0,0,1.03-1.014c0-.573-.338-.979-1.3-1.453-.861-.4-2.144-1.028-2.144-2.43a2.458,2.458,0,0,1,2.753-2.317,3.866,3.866,0,0,1,1.57.289,11.09,11.09,0,0,1,.4,1.893Z" transform="translate(5.889 2.646)" fill="#fff"/>
    <path id="Trazado_3406" data-name="Trazado 3406" d="M71.8,32.923a3.934,3.934,0,0,1-2.888,1.79,3.477,3.477,0,0,1-3.563-3.563,4.048,4.048,0,0,1,1.706-3.259,4.849,4.849,0,0,1,2.753-1.016,2.431,2.431,0,0,1,1.469.425.662.662,0,0,1,.3.572c-.016.44-.422.862-.674.862a.549.549,0,0,1-.356-.186,2.626,2.626,0,0,0-1.7-.812c-.828,0-1.655.744-1.655,2.552,0,2.28,1.6,3.022,2.415,3.022a2.579,2.579,0,0,0,1.89-.778Z" transform="translate(6.433 2.646)" fill="#fff"/>
    <path id="Trazado_3407" data-name="Trazado 3407" d="M80.252,34.1a29.28,29.28,0,0,0-2.872.607l-.116-.118V33.505a9.507,9.507,0,0,1-1,.727,2.576,2.576,0,0,1-1.4.473c-1.317,0-2.177-.829-2.177-2.448V28.844c0-.861-.052-.929-.963-1.131V27.24a23.526,23.526,0,0,0,2.871-.286c-.033.641-.052,1.469-.052,2.515v2.38c0,1.251.641,1.639,1.284,1.639a1.959,1.959,0,0,0,1.436-.592V28.844c0-.892-.069-.961-1.167-1.131V27.24a23.8,23.8,0,0,0,3.024-.286v5.541c0,.877.1,1.011.725,1.079l.406.036Z" transform="translate(7.061 2.653)" fill="#fff"/>
    <path id="Trazado_3408" data-name="Trazado 3408" d="M86.223,32.942a3.828,3.828,0,0,1-2.938,1.773A3.369,3.369,0,0,1,79.874,31.1a4.242,4.242,0,0,1,1.2-3.006,3.642,3.642,0,0,1,2.549-1.217,2.715,2.715,0,0,1,2.668,2.653c0,.339-.1.539-.456.591-.305.053-2.381.2-4.155.27.052,1.995,1.165,2.921,2.365,2.921a2.744,2.744,0,0,0,1.892-.777Zm-4.457-3.311c.776,0,1.519-.015,2.3-.053.269,0,.371-.049.389-.319,0-.879-.456-1.723-1.2-1.723-.693,0-1.335.759-1.486,2.095" transform="translate(7.863 2.646)" fill="#fff"/>
    <path id="Trazado_3409" data-name="Trazado 3409" d="M85.988,34.894v-.507c1.03-.134,1.13-.217,1.13-1.315v-7.82c0-1.065-.083-1.115-1.063-1.215v-.473a19.145,19.145,0,0,0,2.922-.592v10.1c0,1.129.119,1.215,1.165,1.315v.507Z" transform="translate(8.465 2.261)" fill="#fff"/>
    <path id="Trazado_3410" data-name="Trazado 3410" d="M95.688,34.714a1.491,1.491,0,0,1-.947-.339,1.733,1.733,0,0,1-.422-.677,5.71,5.71,0,0,1-1.84,1.016,2.155,2.155,0,0,1-2.195-2.129c0-.861.422-1.317,1.316-1.639a12.382,12.382,0,0,0,2.668-1.115V29.41c0-1.116-.472-1.74-1.182-1.74a.757.757,0,0,0-.624.305,2.942,2.942,0,0,0-.492,1.15.586.586,0,0,1-.64.505.974.974,0,0,1-.928-.81c0-.272.2-.49.574-.744a7.82,7.82,0,0,1,2.7-1.2,2.271,2.271,0,0,1,2.4,2.636v2.921c0,.777.269,1,.556,1a1.31,1.31,0,0,0,.576-.155l.186.507Zm-1.419-4.256c-.338.186-.793.421-1.148.607a1.229,1.229,0,0,0-.878,1.182,1.164,1.164,0,0,0,1.081,1.284,1.617,1.617,0,0,0,.945-.391Z" transform="translate(8.888 2.646)" fill="#fff"/>
    <path id="Trazado_3411" data-name="Trazado 3411" d="M108.351,34.455a22.068,22.068,0,0,0-3.057.659V34.083l-1.03.645a2.087,2.087,0,0,1-1.013.371,3.5,3.5,0,0,1-3.344-3.666,4.354,4.354,0,0,1,4.526-4.173,4.55,4.55,0,0,1,.861.121V25.218c0-.979-.1-1.048-1.2-1.165v-.49a19.986,19.986,0,0,0,3.057-.591v9.864c0,.927.1,1,.778,1.08l.422.049Zm-3.057-5.64a1.6,1.6,0,0,0-1.418-.879c-.54,0-1.875.525-1.875,3.042,0,2.058,1.217,2.92,2.111,2.92a2.135,2.135,0,0,0,1.182-.388Z" transform="translate(9.835 2.261)" fill="#fff"/>
    <path id="Trazado_3412" data-name="Trazado 3412" d="M114.292,32.942a3.826,3.826,0,0,1-2.939,1.773,3.37,3.37,0,0,1-3.411-3.615,4.242,4.242,0,0,1,1.2-3.006,3.648,3.648,0,0,1,2.549-1.217,2.716,2.716,0,0,1,2.669,2.653c0,.339-.1.539-.456.591-.3.053-2.383.2-4.155.27.051,1.995,1.165,2.921,2.365,2.921a2.744,2.744,0,0,0,1.892-.777Zm-4.459-3.311c.777,0,1.519-.015,2.3-.053.27,0,.371-.049.388-.319,0-.879-.456-1.723-1.2-1.723-.693,0-1.335.759-1.486,2.095" transform="translate(10.626 2.646)" fill="#fff"/>
    <path id="Trazado_3413" data-name="Trazado 3413" d="M117.305,34.81v-.54c1.3-.119,1.451-.221,1.451-1.654v-6.57c0-1.436-.152-1.554-1.451-1.654v-.557h4.846v.557c-1.3.1-1.436.219-1.436,1.654v6.57c0,1.418.135,1.536,1.436,1.654v.539Z" transform="translate(11.548 2.346)" fill="#fff"/>
    <path id="Trazado_3414" data-name="Trazado 3414" d="M127.49,34.515v-.507c.81-.1.912-.186.912-1.384V29.787c0-1.2-.524-1.7-1.3-1.7a2.411,2.411,0,0,0-1.47.638v4.04c0,1.079.1,1.147.9,1.247v.507H122.61v-.507c1.081-.134,1.165-.186,1.165-1.3v-3.5c0-1.047-.085-1.1-.945-1.267V27.49a15.944,15.944,0,0,0,2.8-.66v1.283c.338-.236.677-.49,1.082-.744a2.33,2.33,0,0,1,1.35-.49c1.352,0,2.179.98,2.179,2.652v3.21c0,1.1.1,1.148,1.03,1.265v.507Z" transform="translate(12.07 2.641)" fill="#fff"/>
    <path id="Trazado_3415" data-name="Trazado 3415" d="M138.722,27.231a2.379,2.379,0,0,1-.727.964l-.961-.068a2.19,2.19,0,0,1,.455,1.369c0,1.789-1.553,2.666-3.124,2.666a7.173,7.173,0,0,1-.844-.081.853.853,0,0,0-.322.557c0,.286.288.639,1.064.639.574,0,1.1-.031,1.637-.031,1.064,0,2.536.319,2.536,2.042,0,1.855-2.146,3.428-4.393,3.428-2.076,0-3.075-1.114-3.075-2.063a1.153,1.153,0,0,1,.475-.928c.387-.335.912-.677,1.318-.962a2.227,2.227,0,0,1-1.251-.947,1.357,1.357,0,0,1-.221-.825,4.472,4.472,0,0,0,1.639-1.081,2.36,2.36,0,0,1-1.6-2.246,2.95,2.95,0,0,1,3.192-2.789,3.559,3.559,0,0,1,1.739.44c.861-.032,1.739-.133,2.381-.217Zm-5.589,7.936a1.4,1.4,0,0,0-.525,1.015c0,.862.9,1.621,2.2,1.621,1.4,0,2.178-.743,2.178-1.688a1.132,1.132,0,0,0-.878-1.134,4.854,4.854,0,0,0-1.5-.168c-.828,0-1.2.087-1.469.354m.1-5.773c0,1.215.472,2.161,1.317,2.178.692-.018,1.149-.693,1.149-1.957,0-1.184-.457-2.163-1.318-2.163-.591,0-1.148.676-1.148,1.942" transform="translate(12.893 2.646)" fill="#fff"/>
    <path id="Trazado_3416" data-name="Trazado 3416" d="M144.425,32.942a3.828,3.828,0,0,1-2.938,1.773,3.369,3.369,0,0,1-3.412-3.615,4.248,4.248,0,0,1,1.2-3.006,3.644,3.644,0,0,1,2.549-1.217,2.715,2.715,0,0,1,2.668,2.653c0,.339-.1.539-.457.591-.3.053-2.38.2-4.154.27.052,1.995,1.165,2.921,2.365,2.921a2.746,2.746,0,0,0,1.892-.777Zm-4.457-3.311c.777,0,1.519-.015,2.3-.053.27,0,.371-.049.39-.319,0-.879-.457-1.723-1.2-1.723-.693,0-1.334.759-1.486,2.095" transform="translate(13.592 2.646)" fill="#fff"/>
    <path id="Trazado_3417" data-name="Trazado 3417" d="M149.229,34.515v-.507c.81-.1.913-.186.913-1.384V29.787c0-1.2-.524-1.7-1.3-1.7a2.4,2.4,0,0,0-1.47.638v4.04c0,1.079.1,1.147.9,1.247v.507h-3.919v-.507c1.081-.134,1.165-.186,1.165-1.3v-3.5c0-1.047-.085-1.1-.947-1.267V27.49a15.955,15.955,0,0,0,2.8-.66v1.283c.338-.236.676-.49,1.082-.744a2.324,2.324,0,0,1,1.35-.49c1.351,0,2.179.98,2.179,2.652v3.21c0,1.1.1,1.148,1.03,1.265v.507Z" transform="translate(14.21 2.641)" fill="#fff"/>
    <path id="Trazado_3418" data-name="Trazado 3418" d="M152.951,34.811V34.3c1.014-.119,1.115-.186,1.115-1.365V29.544c0-1.083-.1-1.15-.98-1.283v-.475a15.139,15.139,0,0,0,2.836-.626v5.778c0,1.147.085,1.247,1.132,1.365v.507ZM153.8,24.9a1.087,1.087,0,0,1,1.081-1.081,1.065,1.065,0,0,1,1.08,1.081,1.076,1.076,0,0,1-1.1,1.062A1.092,1.092,0,0,1,153.8,24.9" transform="translate(15.057 2.345)" fill="#fff"/>
    <path id="Trazado_3419" data-name="Trazado 3419" d="M163.394,32.942a3.826,3.826,0,0,1-2.938,1.773,3.369,3.369,0,0,1-3.411-3.615,4.242,4.242,0,0,1,1.2-3.006,3.65,3.65,0,0,1,2.551-1.217,2.716,2.716,0,0,1,2.668,2.653c0,.339-.1.539-.456.591-.3.053-2.383.2-4.154.27.051,1.995,1.165,2.921,2.365,2.921a2.742,2.742,0,0,0,1.89-.777Zm-4.459-3.311c.778,0,1.52-.015,2.3-.053.271,0,.372-.049.388-.319,0-.879-.455-1.723-1.2-1.723-.692,0-1.335.759-1.487,2.095" transform="translate(15.46 2.646)" fill="#fff"/>
    <path id="Trazado_3420" data-name="Trazado 3420" d="M166.392,28.669c.576-1,1.268-1.792,1.96-1.792a1.019,1.019,0,0,1,1.081.981,1.179,1.179,0,0,1-.725,1.082.444.444,0,0,1-.491-.049,1.159,1.159,0,0,0-.76-.356c-.371,0-.775.32-1.1,1.1v3.126c0,1.061.086,1.147,1.385,1.247v.506h-4.356v-.506c.963-.1,1.116-.186,1.116-1.247V29.127c0-.948-.1-1.016-.964-1.183V27.5a15.9,15.9,0,0,0,2.82-.656v1.822Z" transform="translate(16.084 2.643)" fill="#fff"/>
    <path id="Trazado_3421" data-name="Trazado 3421" d="M169.434,34.852v-.507c1-.118,1.1-.269,1.1-1.47v-3.26c0-1.047-.033-1.165-.978-1.314v-.473a15.257,15.257,0,0,0,2.837-.627v5.673c0,1.234.083,1.336,1.113,1.47v.507Zm1.335-8.511c.254-.726.811-2.415.928-2.736a5.969,5.969,0,0,1,1.672-.186l.085.169-2.2,2.99Z" transform="translate(16.679 2.304)" fill="#fff"/>
    <path id="Trazado_3422" data-name="Trazado 3422" d="M179.077,34.714a1.494,1.494,0,0,1-.948-.339,1.734,1.734,0,0,1-.422-.677,5.721,5.721,0,0,1-1.84,1.016,2.155,2.155,0,0,1-2.2-2.129c0-.861.423-1.317,1.316-1.639a12.322,12.322,0,0,0,2.669-1.115V29.41c0-1.116-.472-1.74-1.182-1.74a.759.759,0,0,0-.625.305,2.944,2.944,0,0,0-.49,1.15.587.587,0,0,1-.641.5.973.973,0,0,1-.928-.81c0-.272.2-.49.573-.744a7.836,7.836,0,0,1,2.7-1.2,2.27,2.27,0,0,1,2.4,2.636v2.921c0,.777.27,1,.557,1a1.31,1.31,0,0,0,.576-.155l.186.507Zm-1.42-4.256c-.337.186-.793.421-1.149.607a1.229,1.229,0,0,0-.877,1.182,1.165,1.165,0,0,0,1.081,1.284,1.614,1.614,0,0,0,.945-.391Z" transform="translate(17.097 2.646)" fill="#fff"/>
    <path id="Trazado_3423" data-name="Trazado 3423" d="M190.934,27.551c-.845.152-1,.3-1.435,1.232-.422.88-.963,2.3-2.009,4.8a41.665,41.665,0,0,0-1.758,4.678.559.559,0,0,1-.59.439,1.174,1.174,0,0,1-1.115-.982c0-.269.135-.421.456-.641a3.121,3.121,0,0,0,1.332-1.315,4.211,4.211,0,0,0,.39-.862,1.138,1.138,0,0,0-.049-.778c-.8-2.263-1.673-4.524-2.061-5.435-.323-.8-.507-1-1.352-1.134v-.49h3.918v.49c-.76.152-.861.272-.676.844l1.369,3.918c.422-1.03,1.046-2.82,1.366-3.814.2-.594.052-.8-.827-.948v-.49h3.039Z" transform="translate(17.99 2.664)" fill="#fff"/>
    <path id="Trazado_3424" data-name="Trazado 3424" d="M203.534,31.979a21.463,21.463,0,0,1-.946,2.667,16.116,16.116,0,0,1-3.14.439c-4.374,0-6.249-2.921-6.249-5.589,0-3.513,2.686-5.893,6.637-5.893a12.74,12.74,0,0,1,3.038.456c.137.927.254,1.688.372,2.686l-.591.119a3.029,3.029,0,0,0-3.192-2.569c-2.584,0-3.985,2.332-3.985,4.864,0,3.109,1.723,5.2,4.12,5.2,1.538,0,2.517-.913,3.379-2.6Z" transform="translate(19.019 2.324)" fill="#fff"/>
    <path id="Trazado_3425" data-name="Trazado 3425" d="M203.085,34.811V34.3c1.014-.119,1.115-.186,1.115-1.365V29.544c0-1.083-.1-1.15-.981-1.283v-.475a15.15,15.15,0,0,0,2.837-.626v5.778c0,1.147.087,1.247,1.132,1.365v.507Zm.845-9.912a1.087,1.087,0,0,1,1.082-1.081A1.065,1.065,0,0,1,206.09,24.9a1.077,1.077,0,0,1-1.1,1.062,1.092,1.092,0,0,1-1.06-1.062" transform="translate(19.992 2.345)" fill="#fff"/>
    <path id="Trazado_3426" data-name="Trazado 3426" d="M213.528,32.942a3.828,3.828,0,0,1-2.939,1.773,3.37,3.37,0,0,1-3.411-3.615,4.246,4.246,0,0,1,1.2-3.006,3.646,3.646,0,0,1,2.549-1.217,2.715,2.715,0,0,1,2.668,2.653c0,.339-.1.539-.455.591-.3.053-2.381.2-4.154.27.051,1.995,1.165,2.921,2.363,2.921a2.739,2.739,0,0,0,1.892-.777Zm-4.459-3.311c.777,0,1.519-.015,2.3-.053.27,0,.371-.049.389-.319,0-.879-.457-1.723-1.2-1.723-.691,0-1.332.759-1.484,2.095" transform="translate(20.395 2.646)" fill="#fff"/>
    <path id="Trazado_3427" data-name="Trazado 3427" d="M218.331,34.515v-.507c.807-.1.911-.186.911-1.384V29.787c0-1.2-.524-1.7-1.3-1.7a2.4,2.4,0,0,0-1.469.638v4.04c0,1.079.1,1.147.9,1.247v.507H213.45v-.507c1.081-.134,1.164-.186,1.164-1.3v-3.5c0-1.047-.083-1.1-.946-1.267V27.49a15.955,15.955,0,0,0,2.8-.66v1.283c.337-.236.674-.49,1.081-.744a2.324,2.324,0,0,1,1.35-.49c1.351,0,2.179.98,2.179,2.652v3.21c0,1.1.1,1.148,1.029,1.265v.507Z" transform="translate(21.012 2.641)" fill="#fff"/>
    <path id="Trazado_3428" data-name="Trazado 3428" d="M228.156,32.923a3.937,3.937,0,0,1-2.888,1.79A3.477,3.477,0,0,1,221.7,31.15a4.05,4.05,0,0,1,1.7-3.259,4.849,4.849,0,0,1,2.754-1.016,2.431,2.431,0,0,1,1.469.425.665.665,0,0,1,.3.572c-.018.44-.422.862-.677.862a.554.554,0,0,1-.355-.186,2.626,2.626,0,0,0-1.7-.812c-.828,0-1.656.744-1.656,2.552,0,2.28,1.606,3.022,2.414,3.022a2.582,2.582,0,0,0,1.893-.778Z" transform="translate(21.825 2.646)" fill="#fff"/>
    <path id="Trazado_3429" data-name="Trazado 3429" d="M228.029,34.811V34.3c1.014-.119,1.116-.186,1.116-1.365V29.544c0-1.083-.1-1.15-.981-1.283v-.475A15.142,15.142,0,0,0,231,27.161v5.778c0,1.147.085,1.247,1.131,1.365v.507Zm.845-9.912a1.087,1.087,0,0,1,1.082-1.081,1.067,1.067,0,0,1,1.081,1.081,1.079,1.079,0,0,1-1.1,1.062,1.092,1.092,0,0,1-1.063-1.062" transform="translate(22.448 2.345)" fill="#fff"/>
    <path id="Trazado_3430" data-name="Trazado 3430" d="M237.689,34.714a1.49,1.49,0,0,1-.946-.339,1.708,1.708,0,0,1-.422-.677,5.72,5.72,0,0,1-1.84,1.016,2.156,2.156,0,0,1-2.2-2.129c0-.861.424-1.317,1.317-1.639a12.4,12.4,0,0,0,2.669-1.115V29.41c0-1.116-.472-1.74-1.182-1.74a.758.758,0,0,0-.626.305,2.945,2.945,0,0,0-.489,1.15.587.587,0,0,1-.643.5.973.973,0,0,1-.927-.81c0-.272.2-.49.573-.744a7.827,7.827,0,0,1,2.7-1.2,2.271,2.271,0,0,1,2.4,2.636v2.921c0,.777.269,1,.557,1a1.314,1.314,0,0,0,.574-.155l.186.507Zm-1.418-4.256c-.339.186-.8.421-1.149.607a1.23,1.23,0,0,0-.88,1.182,1.167,1.167,0,0,0,1.083,1.284,1.62,1.62,0,0,0,.946-.391Z" transform="translate(22.867 2.646)" fill="#fff"/>
    <path id="Trazado_3431" data-name="Trazado 3431" d="M243.8,29.193c-.406-1.033-.963-1.706-1.772-1.706a.96.96,0,0,0-.948,1.013c0,.589.489,1,1.317,1.35,1.335.573,2.231,1.167,2.231,2.431,0,1.622-1.537,2.434-2.941,2.434a3.836,3.836,0,0,1-2.058-.576,8.769,8.769,0,0,1-.271-2.179l.473-.048c.354,1.081,1.13,2.178,2.144,2.178a1,1,0,0,0,1.03-1.014c0-.573-.337-.979-1.3-1.453-.86-.4-2.143-1.028-2.143-2.43a2.456,2.456,0,0,1,2.75-2.317,3.888,3.888,0,0,1,1.573.289,11.411,11.411,0,0,1,.4,1.893Z" transform="translate(23.563 2.646)" fill="#fff"/>
    <path id="Trazado_3432" data-name="Trazado 3432" d="M65.581,16.325A3.821,3.821,0,0,1,62.643,18.1a3.369,3.369,0,0,1-3.412-3.613,4.236,4.236,0,0,1,1.2-3.006,3.635,3.635,0,0,1,2.549-1.217,2.715,2.715,0,0,1,2.668,2.653c0,.337-.1.539-.456.591-.305.051-2.381.2-4.155.268C61.088,15.768,62.2,16.7,63.4,16.7a2.734,2.734,0,0,0,1.892-.778Zm-4.459-3.309c.777,0,1.52-.019,2.3-.053.271,0,.372-.049.389-.319,0-.881-.456-1.723-1.2-1.723-.693,0-1.335.759-1.486,2.1" transform="translate(5.831 1.01)" fill="#fff"/>
    <path id="Trazado_3433" data-name="Trazado 3433" d="M72.4,16.308A3.933,3.933,0,0,1,69.517,18.1a3.48,3.48,0,0,1-3.564-3.564,4.059,4.059,0,0,1,1.706-3.259,4.879,4.879,0,0,1,2.753-1.014,2.437,2.437,0,0,1,1.47.425.662.662,0,0,1,.3.571c-.016.439-.422.861-.673.861a.549.549,0,0,1-.356-.186,2.635,2.635,0,0,0-1.706-.81c-.827,0-1.654.744-1.654,2.551,0,2.279,1.6,3.023,2.414,3.023A2.583,2.583,0,0,0,72.1,15.92Z" transform="translate(6.493 1.01)" fill="#fff"/>
    <path id="Trazado_3434" data-name="Trazado 3434" d="M77.335,17.9v-.5c.81-.1.912-.187.912-1.385V13.171c0-1.2-.523-1.7-1.3-1.7a2.394,2.394,0,0,0-1.469.643V16.15c0,1.079.1,1.147.9,1.25v.5H72.455v-.5c1.08-.135,1.165-.187,1.165-1.3V12.6c0-1.045-.086-1.1-.947-1.268v-.453a15.7,15.7,0,0,0,2.8-.662V11.5c.337-.237.676-.49,1.081-.744a2.338,2.338,0,0,1,1.351-.49c1.351,0,2.178.98,2.178,2.653v3.206c0,1.1.1,1.15,1.03,1.269v.5Z" transform="translate(7.133 1.006)" fill="#fff"/>
    <path id="Trazado_3435" data-name="Trazado 3435" d="M88.691,14.046A3.807,3.807,0,0,1,84.858,18.1a3.692,3.692,0,0,1-3.868-3.749,3.939,3.939,0,0,1,3.919-4.087,3.7,3.7,0,0,1,3.782,3.784m-5.59-.286c0,2.091.76,3.712,1.942,3.712.793,0,1.537-.538,1.537-2.97,0-2.212-.676-3.629-1.892-3.629-.827,0-1.587.961-1.587,2.888" transform="translate(7.973 1.01)" fill="#fff"/>
    <path id="Trazado_3436" data-name="Trazado 3436" d="M88.605,18.278v-.5c1.029-.135,1.131-.221,1.131-1.317V8.637c0-1.064-.086-1.114-1.063-1.216V6.95a19.158,19.158,0,0,0,2.921-.592v10.1c0,1.13.118,1.214,1.164,1.317v.5Z" transform="translate(8.722 0.626)" fill="#fff"/>
    <path id="Trazado_3437" data-name="Trazado 3437" d="M100.61,14.387a3.808,3.808,0,0,1-3.834,4.053,3.691,3.691,0,0,1-3.867-3.75,3.937,3.937,0,0,1,3.918-4.09,3.7,3.7,0,0,1,3.783,3.783M95.019,14.1c0,2.093.761,3.713,1.943,3.713.793,0,1.537-.538,1.537-2.971,0-2.211-.676-3.628-1.892-3.628-.827,0-1.588.96-1.588,2.887m1.167-4.374C96.439,9,97,7.31,97.114,6.989A5.965,5.965,0,0,1,98.786,6.8l.086.17-2.2,2.988Z" transform="translate(9.146 0.669)" fill="#fff"/>
    <path id="Trazado_3438" data-name="Trazado 3438" d="M108.529,10.618a2.387,2.387,0,0,1-.727.962l-.961-.068a2.186,2.186,0,0,1,.456,1.369c0,1.79-1.554,2.668-3.125,2.668a6.983,6.983,0,0,1-.845-.085.866.866,0,0,0-.321.558c0,.284.288.639,1.064.639.574,0,1.1-.032,1.638-.032,1.064,0,2.533.322,2.533,2.045,0,1.856-2.144,3.426-4.39,3.426-2.078,0-3.075-1.115-3.075-2.063a1.154,1.154,0,0,1,.475-.927c.387-.336.912-.676,1.317-.962a2.228,2.228,0,0,1-1.25-.945,1.352,1.352,0,0,1-.219-.827,4.5,4.5,0,0,0,1.638-1.08,2.363,2.363,0,0,1-1.6-2.249,2.947,2.947,0,0,1,3.191-2.787,3.539,3.539,0,0,1,1.74.44c.861-.034,1.739-.135,2.381-.22Zm-5.59,7.936a1.4,1.4,0,0,0-.523,1.013c0,.861.9,1.623,2.195,1.623,1.4,0,2.179-.744,2.179-1.691a1.131,1.131,0,0,0-.879-1.131,4.854,4.854,0,0,0-1.5-.17c-.827,0-1.2.086-1.469.356m.1-5.776c0,1.217.472,2.161,1.317,2.178.692-.018,1.148-.691,1.148-1.957,0-1.183-.456-2.163-1.317-2.163-.591,0-1.148.676-1.148,1.942" transform="translate(9.921 1.01)" fill="#fff"/>
    <path id="Trazado_3439" data-name="Trazado 3439" d="M108.543,18.2v-.51c1.013-.118,1.114-.186,1.114-1.366v-3.4c0-1.078-.1-1.148-.979-1.283V11.17a15.354,15.354,0,0,0,2.836-.627V16.32c0,1.147.085,1.249,1.131,1.366V18.2Zm.844-9.909a1.091,1.091,0,0,1,1.08-1.091,1.072,1.072,0,1,1-.016,2.144,1.092,1.092,0,0,1-1.064-1.06" transform="translate(10.685 0.709)" fill="#fff"/>
    <path id="Trazado_3440" data-name="Trazado 3440" d="M119.263,16.308a3.935,3.935,0,0,1-2.888,1.792,3.479,3.479,0,0,1-3.563-3.564,4.059,4.059,0,0,1,1.706-3.259,4.876,4.876,0,0,1,2.753-1.014,2.433,2.433,0,0,1,1.469.425.662.662,0,0,1,.3.571c-.018.439-.423.861-.676.861a.547.547,0,0,1-.355-.186,2.637,2.637,0,0,0-1.706-.81c-.827,0-1.654.744-1.654,2.551,0,2.279,1.6,3.023,2.414,3.023a2.584,2.584,0,0,0,1.892-.778Z" transform="translate(11.105 1.01)" fill="#fff"/>
    <path id="Trazado_3441" data-name="Trazado 3441" d="M127.08,14.046a3.807,3.807,0,0,1-3.834,4.052,3.691,3.691,0,0,1-3.867-3.749,3.938,3.938,0,0,1,3.918-4.087,3.7,3.7,0,0,1,3.782,3.784m-5.59-.286c0,2.091.76,3.712,1.943,3.712.793,0,1.536-.538,1.536-2.97,0-2.212-.674-3.629-1.89-3.629-.828,0-1.588.961-1.588,2.888" transform="translate(11.752 1.01)" fill="#fff"/>
    <path id="Trazado_3442" data-name="Trazado 3442" d="M138.753,17.841a21.324,21.324,0,0,0-3.057.659V17.469l-1.03.641a2.078,2.078,0,0,1-1.012.372,3.5,3.5,0,0,1-3.346-3.663,4.358,4.358,0,0,1,5.388-4.052V8.6c0-.979-.1-1.048-1.2-1.164V6.949a20.05,20.05,0,0,0,3.056-.591V16.22c0,.929.1,1,.777,1.08l.422.052ZM135.7,12.2a1.593,1.593,0,0,0-1.418-.878c-.542,0-1.874.523-1.874,3.039,0,2.061,1.216,2.922,2.11,2.922A2.135,2.135,0,0,0,135.7,16.9Z" transform="translate(12.828 0.626)" fill="#fff"/>
    <path id="Trazado_3443" data-name="Trazado 3443" d="M144.927,16.325A3.819,3.819,0,0,1,141.99,18.1a3.369,3.369,0,0,1-3.412-3.613,4.241,4.241,0,0,1,1.2-3.006,3.637,3.637,0,0,1,2.549-1.217A2.715,2.715,0,0,1,145,12.915c0,.337-.1.539-.456.591-.3.051-2.381.2-4.154.268.051,1.995,1.165,2.923,2.364,2.923a2.736,2.736,0,0,0,1.892-.778Zm-4.456-3.309c.776,0,1.519-.019,2.295-.053.271,0,.372-.049.39-.319,0-.881-.457-1.723-1.2-1.723-.691,0-1.333.759-1.484,2.1" transform="translate(13.642 1.01)" fill="#fff"/>
    <path id="Trazado_3444" data-name="Trazado 3444" d="M157.358,18.194v-.539c1.317-.136,1.384-.254,1.384-1.89l-.049-6.637h-.067l-3.868,8.948h-.439l-3.563-8.761H150.7l-.219,4.56a21.185,21.185,0,0,0-.018,2.752c.051.776.406.912,1.537,1.012V18.2h-4.019v-.557c.963-.082,1.283-.354,1.385-.979a30.431,30.431,0,0,0,.354-3.156l.254-3.4c.153-2.027.034-2.195-1.452-2.331V7.218h3.242l3.463,7.769,3.529-7.769h3.209v.558c-1.4.136-1.487.217-1.453,1.754l.169,6.234c.033,1.637.1,1.754,1.486,1.89v.539Z" transform="translate(14.568 0.711)" fill="#fff"/>
    <path id="Trazado_3445" data-name="Trazado 3445" d="M169.308,14.046a3.807,3.807,0,0,1-3.835,4.052,3.691,3.691,0,0,1-3.867-3.749,3.939,3.939,0,0,1,3.917-4.087,3.7,3.7,0,0,1,3.784,3.784m-5.591-.286c0,2.091.76,3.712,1.942,3.712.794,0,1.538-.538,1.538-2.97,0-2.212-.676-3.629-1.892-3.629-.828,0-1.588.961-1.588,2.888" transform="translate(15.909 1.01)" fill="#fff"/>
    <path id="Trazado_3446" data-name="Trazado 3446" d="M174.313,17.9v-.5c.81-.1.911-.187.911-1.385V13.171c0-1.2-.523-1.7-1.3-1.7a2.4,2.4,0,0,0-1.469.643V16.15c0,1.079.1,1.147.9,1.25v.5h-3.916v-.5c1.079-.135,1.163-.187,1.163-1.3V12.6c0-1.045-.085-1.1-.946-1.268v-.453a15.664,15.664,0,0,0,2.8-.662V11.5c.338-.237.674-.49,1.082-.744a2.337,2.337,0,0,1,1.35-.49c1.351,0,2.179.98,2.179,2.653v3.206c0,1.1.1,1.15,1.029,1.269v.5Z" transform="translate(16.679 1.006)" fill="#fff"/>
    <path id="Trazado_3447" data-name="Trazado 3447" d="M181.379,18.1a1.9,1.9,0,0,1-.693.2c-1.216,0-1.909-.626-1.909-2.094V11.431h-1.1l-.085-.2.472-.558h.708V9.435L180.4,8.189l.217.081v2.4h1.758a.532.532,0,0,1-.1.762H180.62v4.22c0,1.335.609,1.52.981,1.52a2.3,2.3,0,0,0,.912-.219l.167.523Z" transform="translate(17.483 0.806)" fill="#fff"/>
    <path id="Trazado_3448" data-name="Trazado 3448" d="M189.12,16.325a3.822,3.822,0,0,1-2.938,1.773,3.37,3.37,0,0,1-3.413-3.613,4.241,4.241,0,0,1,1.2-3.006,3.639,3.639,0,0,1,2.551-1.217,2.714,2.714,0,0,1,2.667,2.653c0,.337-.1.539-.455.591-.3.051-2.383.2-4.155.268.052,1.995,1.167,2.923,2.364,2.923a2.736,2.736,0,0,0,1.893-.778Zm-4.46-3.309c.778,0,1.521-.019,2.3-.053.271,0,.372-.049.389-.319,0-.881-.456-1.723-1.2-1.723-.693,0-1.335.759-1.487,2.1" transform="translate(17.992 1.01)" fill="#fff"/>
    <path id="Trazado_3449" data-name="Trazado 3449" d="M192.352,12.056c.574-1,1.268-1.792,1.959-1.792a1.017,1.017,0,0,1,1.081.981,1.173,1.173,0,0,1-.726,1.081.443.443,0,0,1-.49-.049,1.16,1.16,0,0,0-.76-.356c-.371,0-.777.319-1.1,1.1v3.123c0,1.064.085,1.148,1.383,1.25v.5h-4.355v-.5c.962-.1,1.114-.186,1.114-1.25v-3.63c0-.948-.1-1.013-.961-1.183v-.439a15.741,15.741,0,0,0,2.82-.658v1.825Z" transform="translate(18.64 1.007)" fill="#fff"/>
    <path id="Trazado_3450" data-name="Trazado 3450" d="M198.222,12.056c.573-1,1.264-1.792,1.957-1.792a1.017,1.017,0,0,1,1.082.981,1.174,1.174,0,0,1-.727,1.081.443.443,0,0,1-.49-.049,1.163,1.163,0,0,0-.76-.356c-.369,0-.775.319-1.1,1.1v3.123c0,1.064.086,1.148,1.385,1.25v.5h-4.356v-.5c.962-.1,1.114-.186,1.114-1.25v-3.63c0-.948-.1-1.013-.962-1.183v-.439a15.7,15.7,0,0,0,2.82-.658v1.825Z" transform="translate(19.217 1.007)" fill="#fff"/>
    <path id="Trazado_3451" data-name="Trazado 3451" d="M207.524,16.325a3.823,3.823,0,0,1-2.939,1.773,3.37,3.37,0,0,1-3.412-3.613,4.241,4.241,0,0,1,1.2-3.006,3.639,3.639,0,0,1,2.552-1.217,2.714,2.714,0,0,1,2.666,2.653c0,.337-.1.539-.456.591-.3.051-2.381.2-4.153.268.051,1.995,1.165,2.923,2.364,2.923a2.738,2.738,0,0,0,1.893-.778Zm-4.459-3.309c.777,0,1.519-.019,2.3-.053.269,0,.372-.049.388-.319,0-.881-.456-1.723-1.2-1.723-.693,0-1.337.759-1.487,2.1" transform="translate(19.804 1.01)" fill="#fff"/>
    <path id="Trazado_3452" data-name="Trazado 3452" d="M215.3,10.936c-.841.154-.994.3-1.435,1.234-.422.879-.961,2.3-2.009,4.8a41.708,41.708,0,0,0-1.756,4.678.56.56,0,0,1-.591.439,1.175,1.175,0,0,1-1.115-.979c0-.271.135-.422.457-.643a3.15,3.15,0,0,0,1.334-1.316,4.245,4.245,0,0,0,.389-.861,1.145,1.145,0,0,0-.051-.78c-.794-2.262-1.672-4.524-2.061-5.435-.321-.794-.507-1-1.352-1.134v-.49h3.919v.49c-.761.154-.861.272-.676.845l1.368,3.92c.422-1.031,1.048-2.821,1.369-3.817.2-.592.049-.794-.828-.948v-.49H215.3Z" transform="translate(20.388 1.028)" fill="#fff"/>
    <path id="Trazado_3453" data-name="Trazado 3453" d="M50.985,7.062c-.044.983-.124,2-.182,2.973h.573a4.214,4.214,0,0,1,.643-1.64c.237-.321.558-.472,1.942-.472h.761v8.092c0,1.4-.17,1.537-1.622,1.654v.539h5.27V17.67c-1.538-.118-1.689-.254-1.689-1.654V7.923h.912c1.1,0,1.47.1,1.775.44a4.074,4.074,0,0,1,.657,1.654l.558-.032c-.07-.875-.141-1.99-.161-2.924Z" transform="translate(5.001 0.695)" fill="#fff"/>
    <path id="Trazado_3454" data-name="Trazado 3454" d="M22.945,0a22.945,22.945,0,0,0-2.867,45.711V42.465c-3.783-.572-7.555-1.85-10.069-5.3H35.881c-2.514,3.45-6.287,4.728-10.071,5.3v3.246A22.945,22.945,0,0,0,22.945,0M10.281,16.589c1.009-1.053,8.675-8.533,9.973-9.842C23.426,3.563,22.8,1,22.8,1c3.668,2.793,2.319,5.806.33,7.734-1.617,1.573-7.339,7.33-9.983,9.867-4.2,4.031-3.687,7.361-2.892,10.21-3.076-3.156-4.473-7.534.027-12.221m5.51,1.691c1.124-1.111,7.153-7.023,9.193-9.012,4.285-4.171,4.037-5.831,4.231-6.7,3,3.082,1.16,6.206-.469,7.832C27.319,11.82,20.625,18.583,17.9,21.067c-.692.629-5.2,4.764-4.9,8.6-2.515-3.187-1.84-7.227,2.793-11.388M18.382,23.1c1.115-1.08,8.213-8.064,9.566-9.383,4.4-4.28,4.2-5.625,4.2-5.625,1.9,4.515-.7,6.977-2.27,8.526-1.7,1.686-6.021,5.929-8.505,8.376-6.244,6.14-4,11.107-4,11.107-3.963-2.938-3.073-9.006,1.014-13m16.656,3.116c-1.526,1.5-.913.9-3.389,3.327C27.627,33.477,27.6,36.1,27.6,36.1c-2.246-2.465-.866-6.568,1.548-8.935,1-.983,2.875-2.755,4.2-4.019,2.72-2.582,3.567-3.337,3.952-4.333,1.04,4.328-1.247,6.306-2.267,7.4m.149-7.49c-1.556,1.562-4.64,4.516-7.114,6.977-5.842,5.343-5.932,8.786-5.62,10.4-4.3-5.053-.889-8.84,1.3-10.984,1-.986,7.2-7.095,8.616-8.451,5.018-4.8,5.017-6.236,5.017-6.236,1.906,4.512-.644,6.738-2.2,8.3" fill="#fff"/>
  </g>
</svg>
